<svg width="360" height="360" viewBox="0 0 360 360" fill="none" xmlns="http://www.w3.org/2000/svg">
<rect width="360" height="360" rx="180" fill="#412FDE"/>
<path d="M90 173.159V106H98.1905V165.687H136.872V173.159H90Z" fill="white"/>
<path d="M90 252.271V185.112H98.1905V216.277H100.648L97.0985 217.917L126.311 185.112H136.959L105.107 220.742V216.641L138.87 252.271H128.041L97.0985 219.648L100.648 221.106H98.1905V252.271H90Z" fill="white"/>
<path d="M176.253 253C171.551 253 167.182 252.149 163.148 250.449C159.143 248.748 155.64 246.348 152.637 243.25C149.664 240.151 147.343 236.522 145.675 232.36C144.036 228.169 143.217 223.597 143.217 218.646C143.217 213.756 144.036 209.23 145.675 205.068C147.313 200.907 149.603 197.277 152.546 194.179C155.518 191.081 159.007 188.681 163.011 186.98C167.015 185.249 171.369 184.383 176.071 184.383C180.833 184.383 185.217 185.249 189.221 186.98C193.256 188.681 196.759 191.081 199.732 194.179C202.735 197.277 205.056 200.922 206.694 205.114C208.363 209.275 209.197 213.816 209.197 218.737C209.197 223.658 208.363 228.199 206.694 232.36C205.056 236.522 202.735 240.151 199.732 243.25C196.759 246.348 193.271 248.748 189.266 250.449C185.293 252.149 180.955 253 176.253 253ZM176.071 245.528C179.68 245.528 183.002 244.86 186.036 243.523C189.1 242.156 191.739 240.258 193.953 237.828C196.198 235.398 197.927 232.558 199.141 229.308C200.384 226.027 201.006 222.473 201.006 218.646C201.006 214.728 200.369 211.143 199.095 207.893C197.851 204.613 196.092 201.773 193.817 199.373C191.572 196.973 188.933 195.121 185.899 193.814C182.866 192.508 179.589 191.855 176.071 191.855C172.612 191.855 169.382 192.508 166.378 193.814C163.406 195.121 160.797 196.973 158.552 199.373C156.307 201.773 154.548 204.613 153.274 207.893C152.03 211.143 151.408 214.728 151.408 218.646C151.408 222.504 152.015 226.073 153.228 229.353C154.472 232.634 156.201 235.489 158.415 237.919C160.63 240.318 163.239 242.187 166.242 243.523C169.245 244.86 172.521 245.528 176.071 245.528Z" fill="white"/>
<path d="M145.704 173.159L173.46 106H180.195L207.952 173.159H199.397L191.116 153.111L190.024 150.195L177.01 117.208H176.646L163.632 150.195L162.54 153.111L154.258 173.159H145.704ZM158.626 155.572V148.1H195.029V155.572H158.626Z" fill="white"/>
<path d="M218.218 173.159V106H224.224L255.348 148.737L261.627 157.85H261.991L261.809 141.083V106H270V173.159H264.085L233.143 130.239L226.59 121.309H226.226L226.408 137.529V173.159H218.218Z" fill="white"/>
</svg>
